<svg width="24" height="24" viewBox="0 0 24 24" fill="none" xmlns="http://www.w3.org/2000/svg">
<g clip-path="url(#clip0_59_294)">
<path d="M12.0279 23.4816C18.3445 23.4816 23.4652 18.3609 23.4652 12.0442C23.4652 5.72759 18.3445 0.606934 12.0279 0.606934C5.71124 0.606934 0.590576 5.72759 0.590576 12.0442C0.590576 18.3609 5.71124 23.4816 12.0279 23.4816Z" fill="white"/>
<path d="M19.3061 14.1238C19.3061 10.104 16.0475 6.84521 12.0279 6.84521C8.00826 6.84521 4.74951 10.104 4.74951 14.1238H6.82889C6.82889 11.2524 9.1567 8.92496 12.0277 8.92496C14.8989 8.92496 17.2265 11.2524 17.2265 14.1238" fill="black" fill-opacity="0.1"/>
<path d="M12.5479 17.4508C14.73 17.4508 16.4989 15.6819 16.4989 13.4998C16.4989 11.3178 14.73 9.54883 12.5479 9.54883C10.3658 9.54883 8.59692 11.3178 8.59692 13.4998C8.59692 15.6819 10.3658 17.4508 12.5479 17.4508Z" fill="black" fill-opacity="0.1"/>
<path d="M12.0279 16.307C14.3823 16.307 16.2909 14.3984 16.2909 12.044C16.2909 9.68962 14.3823 7.78101 12.0279 7.78101C9.6735 7.78101 7.76489 9.68962 7.76489 12.044C7.76489 14.3984 9.6735 16.307 12.0279 16.307Z" fill="url(#paint0_linear_59_294)"/>
<path d="M22.4254 6.84527C19.563 1.08602 12.5738 -1.26223 6.81434 1.60014C5.01853 2.49268 3.48366 3.83386 2.3584 5.49377L7.03746 13.6037C6.17552 10.8651 7.69765 7.94608 10.4363 7.08433C10.9179 6.93274 11.4192 6.85227 11.9241 6.84546" fill="url(#paint1_linear_59_294)"/>
<path d="M2.35834 5.49377C-1.22291 10.836 0.204718 18.0696 5.54678 21.6508C7.19965 22.7588 9.10875 23.4249 11.0921 23.5857L15.9789 15.2676C14.1517 17.4822 10.8752 17.7962 8.6604 15.9688C7.9082 15.3484 7.34571 14.5289 7.03722 13.6039" fill="url(#paint2_linear_59_294)"/>
<path d="M11.092 23.5858C17.5053 24.0705 23.0971 19.2645 23.582 12.8514C23.7385 10.7821 23.339 8.70865 22.4251 6.84558H11.924C14.795 6.85871 17.1121 9.19702 17.0986 12.0682C17.0933 13.2299 16.6991 14.3563 15.9789 15.2677" fill="url(#paint3_linear_59_294)"/>
<path d="M2.3584 5.49376L7.03746 13.6037C6.69079 12.4373 6.76424 11.1863 7.24502 10.0686L2.56615 5.18176" fill="url(#paint4_linear_59_294)"/>
<path d="M11.0922 23.5858L15.979 15.2677C15.2079 16.1871 14.1425 16.8115 12.9636 17.0351L10.884 23.5858" fill="url(#paint5_linear_59_294)"/>
<path d="M22.4254 6.84521H11.9241C12.7049 6.84886 13.475 7.02837 14.1769 7.3704C14.8789 7.71243 15.4948 8.2082 15.9789 8.8209L22.6335 7.15722" fill="url(#paint6_linear_59_294)"/>
</g>
<defs>
<linearGradient id="paint0_linear_59_294" x1="12.0303" y1="7.77426" x2="12.0303" y2="16.3074" gradientUnits="userSpaceOnUse">
<stop stop-color="#81B4E0"/>
<stop offset="1" stop-color="#0C5A94"/>
</linearGradient>
<linearGradient id="paint1_linear_59_294" x1="12.3919" y1="0.398831" x2="12.3919" y2="9.86064" gradientUnits="userSpaceOnUse">
<stop stop-color="#F06B59"/>
<stop offset="1" stop-color="#DF2227"/>
</linearGradient>
<linearGradient id="paint2_linear_59_294" x1="3.21841" y1="20.3216" x2="8.00116" y2="12.4196" gradientUnits="userSpaceOnUse">
<stop stop-color="#388B41"/>
<stop offset="1" stop-color="#4CB749"/>
</linearGradient>
<linearGradient id="paint3_linear_59_294" x1="19.2402" y1="21.1621" x2="14.1455" y2="8.89308" gradientUnits="userSpaceOnUse">
<stop stop-color="#E4B022"/>
<stop offset="0.3" stop-color="#FCD209"/>
</linearGradient>
<linearGradient id="paint4_linear_59_294" x1="4.80171" y1="13.2919" x2="4.80171" y2="4.97401" gradientUnits="userSpaceOnUse">
<stop stop-opacity="0.15"/>
<stop offset="0.3" stop-opacity="0.06"/>
<stop offset="1" stop-opacity="0.03"/>
</linearGradient>
<linearGradient id="paint5_linear_59_294" x1="16.2829" y1="15.978" x2="10.5643" y2="21.8006" gradientUnits="userSpaceOnUse">
<stop stop-opacity="0.15"/>
<stop offset="0.3" stop-opacity="0.06"/>
<stop offset="1" stop-opacity="0.03"/>
</linearGradient>
<linearGradient id="paint6_linear_59_294" x1="16.2" y1="17.6538" x2="17.0319" y2="9.43946" gradientUnits="userSpaceOnUse">
<stop stop-opacity="0.15"/>
<stop offset="0.3" stop-opacity="0.06"/>
<stop offset="1" stop-opacity="0.03"/>
</linearGradient>
<clipPath id="clip0_59_294">
<rect width="24" height="24" fill="white"/>
</clipPath>
</defs>
</svg>
