<svg width="17" height="24" viewBox="0 0 17 24" fill="none" xmlns="http://www.w3.org/2000/svg">
<g clip-path="url(#clip0_59_480)">
<path d="M4.27109 24C6.60542 24 8.49995 22.208 8.49995 20V16H4.27109C1.93676 16 0.0422363 17.792 0.0422363 20C0.0422363 22.208 1.93676 24 4.27109 24Z" fill="#0ACF83"/>
<path d="M0.0422363 12C0.0422363 9.792 1.93676 8 4.27109 8H8.49995V16H4.27109C1.93676 16 0.0422363 14.208 0.0422363 12Z" fill="#A259FF"/>
<path d="M0.0424805 4C0.0424805 1.792 1.93701 0 4.27134 0H8.50019V8H4.27134C1.93701 8 0.0424805 6.208 0.0424805 4Z" fill="#F24E1E"/>
<path d="M8.5 0H12.7289C15.0632 0 16.9577 1.792 16.9577 4C16.9577 6.208 15.0632 8 12.7289 8H8.5V0Z" fill="#FF7262"/>
<path d="M16.9577 12C16.9577 14.208 15.0632 16 12.7289 16C10.3945 16 8.5 14.208 8.5 12C8.5 9.792 10.3945 8 12.7289 8C15.0632 8 16.9577 9.792 16.9577 12Z" fill="#1ABCFE"/>
</g>
<defs>
<clipPath id="clip0_59_480">
<rect width="17" height="24" fill="white"/>
</clipPath>
</defs>
</svg>
