<svg width="24" height="24" viewBox="0 0 24 24" fill="none" xmlns="http://www.w3.org/2000/svg">
<g clip-path="url(#clip0_60_716)">
<mask id="mask0_60_716" style="mask-type:luminance" maskUnits="userSpaceOnUse" x="0" y="0" width="24" height="24">
<path d="M16.9421 23.8681C17.1319 23.9429 17.3349 23.9774 17.5385 23.9695C17.7421 23.9616 17.9419 23.9114 18.1255 23.8222L23.0371 21.4352C23.2901 21.3122 23.5035 21.1196 23.6529 20.8795C23.8022 20.6394 23.8815 20.3616 23.8814 20.078V3.89255C23.8815 3.60901 23.8022 3.33121 23.6529 3.09112C23.5035 2.85104 23.2901 2.65842 23.0371 2.53542L18.1256 0.148365C17.8481 0.0134839 17.5359 -0.0309269 17.2323 0.0212803C16.9287 0.0734874 16.6486 0.21973 16.4309 0.439767L7.02821 9.10386L2.93247 5.96383C2.74772 5.82219 2.51971 5.75034 2.28799 5.76074C2.05627 5.77115 1.83547 5.86316 1.6639 6.02081L0.350324 7.2277C-0.0828247 7.62559 -0.0832925 8.31385 0.349201 8.7124L3.90112 11.9853L0.349201 15.2581C-0.0832925 15.6567 -0.0828247 16.3449 0.350324 16.7429L1.6639 17.9497C1.83546 18.1073 2.05625 18.1993 2.28797 18.2098C2.51969 18.2202 2.74771 18.1484 2.93247 18.0067L7.02821 14.8666L16.4309 23.5307C16.5763 23.6778 16.7504 23.7927 16.9421 23.8681ZM17.921 6.51545L10.7865 11.9853L17.921 17.455V6.51545Z" fill="#0065A9"/>
</mask>
<g mask="url(#mask0_60_716)">
<path d="M23.0517 2.53906L18.1363 0.148698C17.8587 0.0137076 17.5464 -0.0307978 17.2426 0.0213407C16.9389 0.0734792 16.6587 0.219683 16.4408 0.439722L0.349377 15.258C-0.0833977 15.6567 -0.0828364 16.3448 0.3505 16.7428L1.66491 17.9496C1.83663 18.1073 2.05756 18.1993 2.28941 18.2098C2.52127 18.2202 2.74942 18.1483 2.93433 18.0067L22.3121 3.15919C22.9622 2.66114 23.8959 3.12942 23.8959 3.95355V3.89591C23.8959 3.61242 23.8167 3.33469 23.6673 3.09465C23.518 2.85462 23.3046 2.66204 23.0517 2.53906Z" fill="#0065A9"/>
</g>
<mask id="mask1_60_716" style="mask-type:luminance" maskUnits="userSpaceOnUse" x="0" y="0" width="24" height="24">
<path d="M16.9421 23.8681C17.1319 23.9429 17.3349 23.9774 17.5385 23.9695C17.7421 23.9616 17.9419 23.9114 18.1255 23.8222L23.0371 21.4352C23.2901 21.3122 23.5035 21.1196 23.6529 20.8795C23.8022 20.6394 23.8815 20.3616 23.8814 20.078V3.89255C23.8815 3.60901 23.8022 3.33121 23.6529 3.09112C23.5035 2.85104 23.2901 2.65842 23.0371 2.53542L18.1256 0.148365C17.8481 0.0134839 17.5359 -0.0309269 17.2323 0.0212803C16.9287 0.0734874 16.6486 0.21973 16.4309 0.439767L7.02821 9.10386L2.93247 5.96383C2.74772 5.82219 2.51971 5.75034 2.28799 5.76074C2.05627 5.77115 1.83547 5.86316 1.6639 6.02081L0.350324 7.2277C-0.0828247 7.62559 -0.0832925 8.31385 0.349201 8.7124L3.90112 11.9853L0.349201 15.2581C-0.0832925 15.6567 -0.0828247 16.3449 0.350324 16.7429L1.6639 17.9497C1.83546 18.1073 2.05625 18.1993 2.28797 18.2098C2.51969 18.2202 2.74771 18.1484 2.93247 18.0067L7.02821 14.8666L16.4309 23.5307C16.5763 23.6778 16.7504 23.7927 16.9421 23.8681ZM17.921 6.51545L10.7865 11.9853L17.921 17.455V6.51545Z" fill="#007ACC"/>
</mask>
<g mask="url(#mask1_60_716)">
<path d="M23.0517 21.4314L18.1363 23.8218C17.8587 23.9567 17.5464 24.0012 17.2426 23.9491C16.9389 23.897 16.6587 23.7508 16.4408 23.5308L0.349377 8.71245C-0.0833977 8.3139 -0.0828364 7.62565 0.3505 7.22776L1.66491 6.02086C1.83664 5.86318 2.05758 5.77116 2.28943 5.76076C2.52128 5.75035 2.74943 5.82221 2.93433 5.96388L22.3121 20.8113C22.9622 21.3093 23.8959 20.841 23.8959 20.0168V20.0746C23.8959 20.358 23.8167 20.6358 23.6673 20.8758C23.518 21.1158 23.3046 21.3084 23.0517 21.4314Z" fill="#007ACC"/>
</g>
<mask id="mask2_60_716" style="mask-type:luminance" maskUnits="userSpaceOnUse" x="0" y="0" width="24" height="24">
<path d="M16.9421 23.8681C17.1319 23.9429 17.3349 23.9774 17.5385 23.9695C17.7421 23.9616 17.9419 23.9114 18.1255 23.8222L23.0371 21.4352C23.2901 21.3122 23.5035 21.1196 23.6529 20.8795C23.8022 20.6394 23.8815 20.3616 23.8814 20.078V3.89255C23.8815 3.60901 23.8022 3.33121 23.6529 3.09112C23.5035 2.85104 23.2901 2.65842 23.0371 2.53542L18.1256 0.148365C17.8481 0.0134839 17.5359 -0.0309269 17.2323 0.0212803C16.9287 0.0734874 16.6486 0.21973 16.4309 0.439767L7.02821 9.10386L2.93247 5.96383C2.74772 5.82219 2.51971 5.75034 2.28799 5.76074C2.05627 5.77115 1.83547 5.86316 1.6639 6.02081L0.350324 7.2277C-0.0828247 7.62559 -0.0832925 8.31385 0.349201 8.7124L3.90112 11.9853L0.349201 15.2581C-0.0832925 15.6567 -0.0828247 16.3449 0.350324 16.7429L1.6639 17.9497C1.83546 18.1073 2.05625 18.1993 2.28797 18.2098C2.51969 18.2202 2.74771 18.1484 2.93247 18.0067L7.02821 14.8666L16.4309 23.5307C16.5763 23.6778 16.7504 23.7927 16.9421 23.8681ZM17.921 6.51545L10.7865 11.9853L17.921 17.455V6.51545Z" fill="#1F9CF0"/>
</mask>
<g mask="url(#mask2_60_716)">
<path d="M18.1209 23.8237C17.8433 23.9586 17.5309 24.003 17.2272 23.9508C16.9234 23.8987 16.6432 23.7524 16.4253 23.5324C16.9755 24.088 17.9163 23.6944 17.9163 22.9085V1.06518C17.9163 0.279223 16.9755 -0.11432 16.4253 0.441365C16.6432 0.221309 16.9234 0.0750679 17.2272 0.0228643C17.5309 -0.0293393 17.8432 0.0150744 18.1209 0.149964L23.0355 2.53702C23.2886 2.65993 23.5021 2.85252 23.6516 3.09261C23.801 3.33271 23.8803 3.61055 23.8803 3.89415V20.0797C23.8803 20.6584 23.5519 21.1861 23.0355 21.4368L18.1209 23.8237Z" fill="#1F9CF0"/>
</g>
<mask id="mask3_60_716" style="mask-type:luminance" maskUnits="userSpaceOnUse" x="0" y="0" width="24" height="24">
<path d="M16.9421 23.8681C17.1319 23.9429 17.3349 23.9774 17.5385 23.9695C17.7421 23.9616 17.9419 23.9114 18.1255 23.8222L23.0371 21.4352C23.2901 21.3122 23.5035 21.1196 23.6529 20.8795C23.8022 20.6394 23.8815 20.3616 23.8814 20.078V3.89255C23.8815 3.60901 23.8022 3.33121 23.6529 3.09112C23.5035 2.85104 23.2901 2.65842 23.0371 2.53542L18.1256 0.148365C17.8481 0.0134839 17.5359 -0.0309269 17.2323 0.0212803C16.9287 0.0734874 16.6486 0.21973 16.4309 0.439767L7.02821 9.10386L2.93247 5.96383C2.74772 5.82219 2.51971 5.75034 2.28799 5.76074C2.05627 5.77115 1.83547 5.86316 1.6639 6.02081L0.350324 7.2277C-0.0828247 7.62559 -0.0832925 8.31385 0.349201 8.7124L3.90112 11.9853L0.349201 15.2581C-0.0832925 15.6567 -0.0828247 16.3449 0.350324 16.7429L1.6639 17.9497C1.83546 18.1073 2.05625 18.1993 2.28797 18.2098C2.51969 18.2202 2.74771 18.1484 2.93247 18.0067L7.02821 14.8666L16.4309 23.5307C16.5763 23.6778 16.7504 23.7927 16.9421 23.8681ZM17.921 6.51545L10.7865 11.9853L17.921 17.455V6.51545Z" fill="url(#paint0_linear_60_716)" fill-opacity="0.25"/>
</mask>
<g mask="url(#mask3_60_716)">
<path d="M16.9421 23.8682C17.1319 23.9429 17.3349 23.9774 17.5385 23.9695C17.7421 23.9616 17.9419 23.9115 18.1255 23.8223L23.037 21.4352C23.29 21.3122 23.5035 21.1196 23.6529 20.8795C23.8022 20.6394 23.8815 20.3616 23.8814 20.0781V3.89262C23.8815 3.60907 23.8022 3.33127 23.6529 3.09119C23.5035 2.8511 23.2901 2.65848 23.0371 2.53548L18.1254 0.148335C17.8479 0.0134749 17.5357 -0.0309241 17.2321 0.0212826C16.9285 0.0734893 16.6485 0.21972 16.4308 0.439736L7.02821 9.10393L2.93247 5.96389C2.74772 5.82225 2.51971 5.7504 2.28799 5.76081C2.05627 5.77121 1.83547 5.86322 1.6639 6.02087L0.350324 7.22777C-0.0828247 7.62566 -0.0832925 8.31391 0.349201 8.71246L3.90112 11.9853L0.349201 15.2581C-0.0832925 15.6568 -0.0828247 16.3449 0.350324 16.7429L1.6639 17.9497C1.83546 18.1074 2.05625 18.1994 2.28797 18.2098C2.51969 18.2203 2.74771 18.1484 2.93247 18.0068L7.02821 14.8667L16.4308 23.5308C16.5762 23.6778 16.7503 23.7927 16.9421 23.8682ZM17.921 6.51542L10.7865 11.9853L17.921 17.4551V6.51542Z" fill="url(#paint1_linear_60_716)" fill-opacity="0.25"/>
</g>
</g>
<defs>
<linearGradient id="paint0_linear_60_716" x1="1192.84" y1="0" x2="1192.84" y2="2397.06" gradientUnits="userSpaceOnUse">
<stop stop-color="white"/>
<stop offset="1" stop-color="white" stop-opacity="0"/>
</linearGradient>
<linearGradient id="paint1_linear_60_716" x1="1192.84" y1="0" x2="1192.84" y2="2397.06" gradientUnits="userSpaceOnUse">
<stop stop-color="white"/>
<stop offset="1" stop-color="white" stop-opacity="0"/>
</linearGradient>
<clipPath id="clip0_60_716">
<rect width="24" height="24" fill="white"/>
</clipPath>
</defs>
</svg>
