<svg width="24" height="24" viewBox="0 0 24 24" fill="none" xmlns="http://www.w3.org/2000/svg">
<g clip-path="url(#clip0_60_706)">
<path d="M0.601185 11.8564C0.600627 13.8729 1.12751 15.8418 2.12937 17.5773L0.505371 23.5067L6.57346 21.9157C8.25182 22.8294 10.1323 23.3081 12.0432 23.3082H12.0483C18.3566 23.3082 23.4918 18.1749 23.4945 11.8654C23.4957 8.80804 22.3061 5.93307 20.1448 3.77009C17.9839 1.6073 15.1099 0.41558 12.0478 0.414185C5.73867 0.414185 0.603883 5.54721 0.601278 11.8564" fill="url(#paint0_linear_60_706)"/>
<path d="M0.192552 11.8527C0.191901 13.9417 0.737669 15.981 1.77525 17.7786L0.0930176 23.9207L6.37869 22.2726C8.1106 23.2168 10.0606 23.7147 12.0447 23.7154H12.0499C18.5846 23.7154 23.9042 18.3975 23.907 11.8621C23.9081 8.69488 22.6757 5.71656 20.4372 3.47609C18.1984 1.23591 15.2217 0.00130233 12.0499 0C5.51404 0 0.195157 5.31721 0.192552 11.8527ZM3.93581 17.469L3.70111 17.0965C2.71451 15.5277 2.19376 13.7149 2.19451 11.8534C2.19665 6.4213 6.61748 2.00186 12.0536 2.00186C14.6861 2.00298 17.1602 3.02921 19.021 4.89116C20.8818 6.7533 21.9057 9.22865 21.905 11.8614C21.9026 17.2935 17.4817 21.7135 12.0499 21.7135H12.0459C10.2773 21.7126 8.54269 21.2376 7.02995 20.34L6.66995 20.1265L2.9399 21.1045L3.93581 17.4689V17.469Z" fill="url(#paint1_linear_60_706)"/>
<path d="M9.0863 6.89746C8.86434 6.40416 8.63076 6.39421 8.41969 6.38556C8.24686 6.37811 8.04927 6.37867 7.85188 6.37867C7.6543 6.37867 7.33327 6.453 7.06193 6.74928C6.7903 7.04583 6.0249 7.76249 6.0249 9.22007C6.0249 10.6777 7.08658 12.0864 7.23458 12.2843C7.38276 12.4817 9.28416 15.5686 12.2955 16.7562C14.7982 17.743 15.3075 17.5468 15.8507 17.4973C16.3939 17.448 17.6036 16.7808 17.8504 16.089C18.0974 15.3973 18.0974 14.8043 18.0233 14.6804C17.9493 14.557 17.7517 14.4829 17.4554 14.3348C17.159 14.1866 15.7025 13.4698 15.4309 13.371C15.1593 13.2722 14.9618 13.2229 14.7643 13.5195C14.5667 13.8157 13.9993 14.4829 13.8264 14.6804C13.6536 14.8785 13.4807 14.9031 13.1845 14.755C12.8881 14.6063 11.9339 14.2938 10.8019 13.2846C9.92118 12.4993 9.32658 11.5296 9.15374 11.2329C8.9809 10.9367 9.13523 10.7762 9.28379 10.6285C9.4169 10.4958 9.58016 10.2826 9.72844 10.1096C9.87616 9.93663 9.92546 9.81318 10.0243 9.6156C10.1231 9.41783 10.0736 9.24481 9.99969 9.09663C9.92546 8.94844 9.34974 7.48323 9.0863 6.89746Z" fill="white"/>
</g>
<defs>
<linearGradient id="paint0_linear_60_706" x1="1149.96" y1="2309.67" x2="1149.96" y2="0.414185" gradientUnits="userSpaceOnUse">
<stop stop-color="#1FAF38"/>
<stop offset="1" stop-color="#60D669"/>
</linearGradient>
<linearGradient id="paint1_linear_60_706" x1="1190.79" y1="2392.07" x2="1190.79" y2="0" gradientUnits="userSpaceOnUse">
<stop stop-color="#F9F9F9"/>
<stop offset="1" stop-color="white"/>
</linearGradient>
<clipPath id="clip0_60_706">
<rect width="24" height="24" fill="white"/>
</clipPath>
</defs>
</svg>
