<svg width="31" height="31" viewBox="0 0 31 31" fill="none" xmlns="http://www.w3.org/2000/svg">
<path d="M18.5938 10.8594H12.4062C11.996 10.8594 11.6025 11.0223 11.3124 11.3124C11.0223 11.6025 10.8594 11.996 10.8594 12.4062V18.5938C10.8594 19.004 11.0223 19.3975 11.3124 19.6876C11.6025 19.9776 11.996 20.1406 12.4062 20.1406H18.5938C19.004 20.1406 19.3975 19.9776 19.6876 19.6876C19.9776 19.3975 20.1406 19.004 20.1406 18.5938V12.4062C20.1406 11.996 19.9776 11.6025 19.6876 11.3124C19.3975 11.0223 19.004 10.8594 18.5938 10.8594ZM17.0469 17.0469H13.9531V13.9531H17.0469V17.0469ZM28.9062 17.0469H27.3594V13.9531H28.9062C29.3165 13.9531 29.71 13.7902 30.0001 13.5001C30.2901 13.21 30.4531 12.8165 30.4531 12.4062C30.4531 11.996 30.2901 11.6025 30.0001 11.3124C29.71 11.0223 29.3165 10.8594 28.9062 10.8594H27.3594V6.21875C27.3594 5.53499 27.0878 4.87923 26.6043 4.39574C26.1208 3.91225 25.465 3.64062 24.7812 3.64062H20.1406V2.09375C20.1406 1.68349 19.9776 1.29004 19.6876 0.999944C19.3975 0.709849 19.004 0.546875 18.5938 0.546875C18.1835 0.546875 17.79 0.709849 17.4999 0.999944C17.2099 1.29004 17.0469 1.68349 17.0469 2.09375V3.64062H13.9531V2.09375C13.9531 1.68349 13.7902 1.29004 13.5001 0.999944C13.21 0.709849 12.8165 0.546875 12.4062 0.546875C11.996 0.546875 11.6025 0.709849 11.3124 0.999944C11.0223 1.29004 10.8594 1.68349 10.8594 2.09375V3.64062H6.21875C5.53499 3.64062 4.87923 3.91225 4.39574 4.39574C3.91225 4.87923 3.64062 5.53499 3.64062 6.21875V10.8594H2.09375C1.68349 10.8594 1.29004 11.0223 0.999944 11.3124C0.709849 11.6025 0.546875 11.996 0.546875 12.4062C0.546875 12.8165 0.709849 13.21 0.999944 13.5001C1.29004 13.7902 1.68349 13.9531 2.09375 13.9531H3.64062V17.0469H2.09375C1.68349 17.0469 1.29004 17.2099 0.999944 17.4999C0.709849 17.79 0.546875 18.1835 0.546875 18.5938C0.546875 19.004 0.709849 19.3975 0.999944 19.6876C1.29004 19.9776 1.68349 20.1406 2.09375 20.1406H3.64062V24.7812C3.64062 25.465 3.91225 26.1208 4.39574 26.6043C4.87923 27.0878 5.53499 27.3594 6.21875 27.3594H10.8594V28.9062C10.8594 29.3165 11.0223 29.71 11.3124 30.0001C11.6025 30.2901 11.996 30.4531 12.4062 30.4531C12.8165 30.4531 13.21 30.2901 13.5001 30.0001C13.7902 29.71 13.9531 29.3165 13.9531 28.9062V27.3594H17.0469V28.9062C17.0469 29.3165 17.2099 29.71 17.4999 30.0001C17.79 30.2901 18.1835 30.4531 18.5938 30.4531C19.004 30.4531 19.3975 30.2901 19.6876 30.0001C19.9776 29.71 20.1406 29.3165 20.1406 28.9062V27.3594H24.7812C25.465 27.3594 26.1208 27.0878 26.6043 26.6043C27.0878 26.1208 27.3594 25.465 27.3594 24.7812V20.1406H28.9062C29.3165 20.1406 29.71 19.9776 30.0001 19.6876C30.2901 19.3975 30.4531 19.004 30.4531 18.5938C30.4531 18.1835 30.2901 17.79 30.0001 17.4999C29.71 17.2099 29.3165 17.0469 28.9062 17.0469ZM24.2656 24.2656H6.73438V6.73438H24.2656V24.2656Z" fill="black"/>
</svg>
