<svg width="23" height="29" viewBox="0 0 23 29" fill="none" xmlns="http://www.w3.org/2000/svg">
<path d="M3.25 0.75H19.75C20.4793 0.75 21.1788 1.03973 21.6945 1.55546C22.2103 2.07118 22.5 2.77065 22.5 3.5V25.5C22.5 26.2293 22.2103 26.9288 21.6945 27.4445C21.1788 27.9603 20.4793 28.25 19.75 28.25H3.25C2.52065 28.25 1.82118 27.9603 1.30546 27.4445C0.789731 26.9288 0.5 26.2293 0.5 25.5V3.5C0.5 2.77065 0.789731 2.07118 1.30546 1.55546C1.82118 1.03973 2.52065 0.75 3.25 0.75ZM11.5 3.5C9.31196 3.5 7.21354 4.36919 5.66637 5.91637C4.11919 7.46354 3.25 9.56196 3.25 11.75C3.25 16.3012 6.94875 20 11.6375 20L10.4275 16.9338C10.2476 16.6159 10.2001 16.24 10.2953 15.8875C10.3905 15.5349 10.6208 15.234 10.9363 15.05L12.1187 14.3625C12.4366 14.1826 12.8125 14.1351 13.165 14.2303C13.5176 14.3255 13.8185 14.5558 14.0025 14.8713L16.6425 18.1987C17.6133 17.4278 18.3971 16.4473 18.9353 15.3305C19.4734 14.2137 19.7519 12.9897 19.75 11.75C19.75 9.56196 18.8808 7.46354 17.3336 5.91637C15.7865 4.36919 13.688 3.5 11.5 3.5ZM11.5 10.375C11.8647 10.375 12.2144 10.5199 12.4723 10.7777C12.7301 11.0356 12.875 11.3853 12.875 11.75C12.875 12.1147 12.7301 12.4644 12.4723 12.7223C12.2144 12.9801 11.8647 13.125 11.5 13.125C11.1353 13.125 10.7856 12.9801 10.5277 12.7223C10.2699 12.4644 10.125 12.1147 10.125 11.75C10.125 11.3853 10.2699 11.0356 10.5277 10.7777C10.7856 10.5199 11.1353 10.375 11.5 10.375ZM4.625 22.75C4.26033 22.75 3.91059 22.8949 3.65273 23.1527C3.39487 23.4106 3.25 23.7603 3.25 24.125C3.25 24.4897 3.39487 24.8394 3.65273 25.0973C3.91059 25.3551 4.26033 25.5 4.625 25.5C4.98967 25.5 5.33941 25.3551 5.59727 25.0973C5.85513 24.8394 6 24.4897 6 24.125C6 23.7603 5.85513 23.4106 5.59727 23.1527C5.33941 22.8949 4.98967 22.75 4.625 22.75ZM11.6238 16.2463L15.0475 24.9225L18.6087 22.86L12.8062 15.5588L11.6238 16.2463Z" fill="black"/>
</svg>
