<svg width="25" height="25" viewBox="0 0 25 25" fill="none" xmlns="http://www.w3.org/2000/svg">
<path d="M2.75 24.75C1.99375 24.75 1.34613 24.4805 0.807127 23.9415C0.268127 23.4025 -0.000914332 22.7553 2.33447e-06 22V2.75C2.33447e-06 1.99375 0.269502 1.34613 0.808502 0.807127C1.3475 0.268127 1.99467 -0.000914332 2.75 2.33447e-06H22C22.7563 2.33447e-06 23.4039 0.269502 23.9429 0.808502C24.4819 1.3475 24.7509 1.99467 24.75 2.75V22C24.75 22.7563 24.4805 23.4039 23.9415 23.9429C23.4025 24.4819 22.7553 24.7509 22 24.75H2.75ZM13.75 13.75V22H22V13.75H13.75ZM13.75 11H22V2.75H13.75V11ZM11 11V2.75H2.75V11H11ZM11 13.75H2.75V22H11V13.75Z" fill="black"/>
</svg>
