<svg width="29" height="21" viewBox="0 0 29 21" fill="none" xmlns="http://www.w3.org/2000/svg">
<path d="M18.625 10.5H22.75V6.375H18.625V10.5ZM12.4375 10.5H16.5625V6.375H12.4375V10.5ZM6.25 10.5H10.375V6.375H6.25V10.5ZM24.8125 0.1875H4.1875C1.91256 0.1875 0.0625 2.03756 0.0625 4.3125V12.5625C0.0628803 13.2862 0.253662 13.9971 0.615687 14.6238C0.977712 15.2504 1.49824 15.7708 2.125 16.1327V18.2344C2.125 19.6554 3.28206 20.8125 4.70312 20.8125H11.4062C11.6806 20.8125 11.9425 20.7032 12.1364 20.5114L14.5 18.1478L16.8636 20.5114C16.9596 20.6071 17.0734 20.6829 17.1987 20.7346C17.324 20.7863 17.4582 20.8127 17.5938 20.8125H24.2969C25.7179 20.8125 26.875 19.6554 26.875 18.2344V16.1327C27.5018 15.7708 28.0223 15.2504 28.3843 14.6238C28.7463 13.9971 28.9371 13.2862 28.9375 12.5625V4.3125C28.9375 2.03756 27.0874 0.1875 24.8125 0.1875ZM24.8125 11.5312C24.8125 11.8048 24.7039 12.0671 24.5105 12.2605C24.3171 12.4539 24.0548 12.5625 23.7812 12.5625H5.21875C4.94525 12.5625 4.68294 12.4539 4.48955 12.2605C4.29615 12.0671 4.1875 11.8048 4.1875 11.5312V5.34375C4.1875 5.07025 4.29615 4.80794 4.48955 4.61455C4.68294 4.42115 4.94525 4.3125 5.21875 4.3125H23.7812C24.0548 4.3125 24.3171 4.42115 24.5105 4.61455C24.7039 4.80794 24.8125 5.07025 24.8125 5.34375V11.5312Z" fill="black"/>
</svg>
