<svg width="33" height="33" viewBox="0 0 33 33" fill="none" xmlns="http://www.w3.org/2000/svg">
<path d="M30.25 16.5C30.25 8.90588 24.0941 2.75 16.5 2.75C8.90588 2.75 2.75 8.90588 2.75 16.5C2.75 24.0941 8.90588 30.25 16.5 30.25" stroke="black" stroke-width="0.75" stroke-linecap="round" stroke-linejoin="round"/>
<path d="M17.875 2.81885C17.875 2.81885 22 8.2501 22 16.5001M15.125 30.1813C15.125 30.1813 11 24.7501 11 16.5001C11 8.2501 15.125 2.81885 15.125 2.81885M3.61621 21.3126H16.5M3.61621 11.6876H29.3837" stroke="black" stroke-width="0.75" stroke-linecap="round" stroke-linejoin="round"/>
<path d="M30.0836 24.6358C30.7629 25.0538 30.7203 26.0699 30.0218 26.1496L26.4922 26.5498L24.9095 29.7288C24.596 30.3599 23.6267 30.0505 23.4658 29.2695L21.7401 20.86C21.604 20.2 22.198 19.7848 22.7714 20.1381L30.0836 24.6358Z" stroke="black" stroke-width="0.75"/>
</svg>
